<?xml version="1.0" encoding="utf-8" standalone="no"?>
<!DOCTYPE svg PUBLIC "-//W3C//DTD SVG 1.1//EN"
  "http://www.w3.org/Graphics/SVG/1.1/DTD/svg11.dtd">
<svg xmlns:xlink="http://www.w3.org/1999/xlink" width="382.68pt" height="150.2762pt" viewBox="0 0 382.68 150.2762" xmlns="http://www.w3.org/2000/svg" version="1.1">
 <metadata>
  <rdf:RDF xmlns:dc="http://purl.org/dc/elements/1.1/" xmlns:cc="http://creativecommons.org/ns#" xmlns:rdf="http://www.w3.org/1999/02/22-rdf-syntax-ns#">
   <cc:Work>
    <dc:type rdf:resource="http://purl.org/dc/dcmitype/StillImage"/>
    <dc:date>2026-07-27T06:38:04.413759</dc:date>
    <dc:format>image/svg+xml</dc:format>
    <dc:creator>
     <cc:Agent>
      <dc:title>Matplotlib v3.11.1, https://matplotlib.org/</dc:title>
     </cc:Agent>
    </dc:creator>
   </cc:Work>
  </rdf:RDF>
 </metadata>
 <defs>
  <style type="text/css">*{stroke-linejoin: round; stroke-linecap: butt}</style>
 </defs>
 <g id="figure_1">
  <g id="patch_1">
   <path d="M 0 150.2762 
L 382.68 150.2762 
L 382.68 0 
L 0 0 
z
" style="fill: #ffffff"/>
  </g>
  <g id="axes_1">
   <g id="patch_2">
    <path d="M 107.532069 98.3988 
Q 118.604651 98.3988 128.447396 98.3988 
" clip-path="url(#p6e5ed00cd1)" style="fill: none; stroke: #52514e; stroke-width: 1.1; stroke-linecap: round"/>
    <path d="M 124.847396 96.5988 
L 128.447396 98.3988 
L 124.847396 100.1988 
z
" clip-path="url(#p6e5ed00cd1)" style="fill: #52514e; stroke: #52514e; stroke-width: 1.1; stroke-linecap: round"/>
   </g>
   <g id="patch_3">
    <path d="M 229.064469 98.3988 
Q 240.137051 98.3988 249.979796 98.3988 
" clip-path="url(#p6e5ed00cd1)" style="fill: none; stroke: #52514e; stroke-width: 1.1; stroke-linecap: round"/>
    <path d="M 246.379796 96.5988 
L 249.979796 98.3988 
L 246.379796 100.1988 
z
" clip-path="url(#p6e5ed00cd1)" style="fill: #52514e; stroke: #52514e; stroke-width: 1.1; stroke-linecap: round"/>
   </g>
   <g id="line2d_1">
    <path d="M 14.5656 119.89566 
L 368.1144 119.89566 
" clip-path="url(#p6e5ed00cd1)" style="fill: none; stroke: #c3c2b7; stroke-width: 0.8; stroke-linecap: square"/>
   </g>
   <g id="text_1">
    <!-- 1. install -->
    <g style="fill: #0b0b0b" transform="translate(14.5656 16.31988) scale(0.085 -0.085)">
     <defs>
      <path id="DejaVuSans-Bold-14" d="M 750 831 
L 1813 831 
L 1813 3847 
L 722 3622 
L 722 4441 
L 1806 4666 
L 2950 4666 
L 2950 831 
L 4013 831 
L 4013 0 
L 750 0 
L 750 831 
z
" transform="scale(0.015625)"/>
      <path id="DejaVuSans-Bold-11" d="M 653 1209 
L 1778 1209 
L 1778 0 
L 653 0 
L 653 1209 
z
" transform="scale(0.015625)"/>
      <path id="DejaVuSans-Bold-3" transform="scale(0.015625)"/>
      <path id="DejaVuSans-Bold-4c" d="M 538 3500 
L 1656 3500 
L 1656 0 
L 538 0 
L 538 3500 
z
M 538 4863 
L 1656 4863 
L 1656 3950 
L 538 3950 
L 538 4863 
z
" transform="scale(0.015625)"/>
      <path id="DejaVuSans-Bold-51" d="M 4056 2131 
L 4056 0 
L 2931 0 
L 2931 347 
L 2931 1631 
Q 2931 2084 2911 2256 
Q 2891 2428 2841 2509 
Q 2775 2619 2662 2680 
Q 2550 2741 2406 2741 
Q 2056 2741 1856 2470 
Q 1656 2200 1656 1722 
L 1656 0 
L 538 0 
L 538 3500 
L 1656 3500 
L 1656 2988 
Q 1909 3294 2193 3439 
Q 2478 3584 2822 3584 
Q 3428 3584 3742 3212 
Q 4056 2841 4056 2131 
z
" transform="scale(0.015625)"/>
      <path id="DejaVuSans-Bold-56" d="M 3272 3391 
L 3272 2541 
Q 2913 2691 2578 2766 
Q 2244 2841 1947 2841 
Q 1628 2841 1473 2761 
Q 1319 2681 1319 2516 
Q 1319 2381 1436 2309 
Q 1553 2238 1856 2203 
L 2053 2175 
Q 2913 2066 3209 1816 
Q 3506 1566 3506 1031 
Q 3506 472 3093 190 
Q 2681 -91 1863 -91 
Q 1516 -91 1145 -36 
Q 775 19 384 128 
L 384 978 
Q 719 816 1070 734 
Q 1422 653 1784 653 
Q 2113 653 2278 743 
Q 2444 834 2444 1013 
Q 2444 1163 2330 1236 
Q 2216 1309 1875 1350 
L 1678 1375 
Q 931 1469 631 1722 
Q 331 1975 331 2491 
Q 331 3047 712 3315 
Q 1094 3584 1881 3584 
Q 2191 3584 2531 3537 
Q 2872 3491 3272 3391 
z
" transform="scale(0.015625)"/>
      <path id="DejaVuSans-Bold-57" d="M 1759 4494 
L 1759 3500 
L 2913 3500 
L 2913 2700 
L 1759 2700 
L 1759 1216 
Q 1759 972 1856 886 
Q 1953 800 2241 800 
L 2816 800 
L 2816 0 
L 1856 0 
Q 1194 0 917 276 
Q 641 553 641 1216 
L 641 2700 
L 84 2700 
L 84 3500 
L 641 3500 
L 641 4494 
L 1759 4494 
z
" transform="scale(0.015625)"/>
      <path id="DejaVuSans-Bold-44" d="M 2106 1575 
Q 1756 1575 1579 1456 
Q 1403 1338 1403 1106 
Q 1403 894 1545 773 
Q 1688 653 1941 653 
Q 2256 653 2472 879 
Q 2688 1106 2688 1447 
L 2688 1575 
L 2106 1575 
z
M 3816 1997 
L 3816 0 
L 2688 0 
L 2688 519 
Q 2463 200 2181 54 
Q 1900 -91 1497 -91 
Q 953 -91 614 226 
Q 275 544 275 1050 
Q 275 1666 698 1953 
Q 1122 2241 2028 2241 
L 2688 2241 
L 2688 2328 
Q 2688 2594 2478 2717 
Q 2269 2841 1825 2841 
Q 1466 2841 1156 2769 
Q 847 2697 581 2553 
L 581 3406 
Q 941 3494 1303 3539 
Q 1666 3584 2028 3584 
Q 2975 3584 3395 3211 
Q 3816 2838 3816 1997 
z
" transform="scale(0.015625)"/>
      <path id="DejaVuSans-Bold-4f" d="M 538 4863 
L 1656 4863 
L 1656 0 
L 538 0 
L 538 4863 
z
" transform="scale(0.015625)"/>
     </defs>
     <use xlink:href="#DejaVuSans-Bold-14"/>
     <use xlink:href="#DejaVuSans-Bold-11" transform="translate(69.578125 0)"/>
     <use xlink:href="#DejaVuSans-Bold-3" transform="translate(107.5625 0)"/>
     <use xlink:href="#DejaVuSans-Bold-4c" transform="translate(142.375 0)"/>
     <use xlink:href="#DejaVuSans-Bold-51" transform="translate(176.65625 0)"/>
     <use xlink:href="#DejaVuSans-Bold-56" transform="translate(247.84375 0)"/>
     <use xlink:href="#DejaVuSans-Bold-57" transform="translate(307.359375 0)"/>
     <use xlink:href="#DejaVuSans-Bold-44" transform="translate(355.15625 0)"/>
     <use xlink:href="#DejaVuSans-Bold-4f" transform="translate(422.640625 0)"/>
     <use xlink:href="#DejaVuSans-Bold-4f" transform="translate(456.921875 0)"/>
    </g>
   </g>
   <g id="text_2">
    <!-- sample under a bias -->
    <g style="fill: #52514e" transform="translate(14.5656 31.594805) scale(0.064 -0.064)">
     <defs>
      <path id="DejaVuSans-56" d="M 2834 3397 
L 2834 2853 
Q 2591 2978 2328 3040 
Q 2066 3103 1784 3103 
Q 1356 3103 1142 2972 
Q 928 2841 928 2578 
Q 928 2378 1081 2264 
Q 1234 2150 1697 2047 
L 1894 2003 
Q 2506 1872 2764 1633 
Q 3022 1394 3022 966 
Q 3022 478 2636 193 
Q 2250 -91 1575 -91 
Q 1294 -91 989 -36 
Q 684 19 347 128 
L 347 722 
Q 666 556 975 473 
Q 1284 391 1588 391 
Q 1994 391 2212 530 
Q 2431 669 2431 922 
Q 2431 1156 2273 1281 
Q 2116 1406 1581 1522 
L 1381 1569 
Q 847 1681 609 1914 
Q 372 2147 372 2553 
Q 372 3047 722 3315 
Q 1072 3584 1716 3584 
Q 2034 3584 2315 3537 
Q 2597 3491 2834 3397 
z
" transform="scale(0.015625)"/>
      <path id="DejaVuSans-44" d="M 2194 1759 
Q 1497 1759 1228 1600 
Q 959 1441 959 1056 
Q 959 750 1161 570 
Q 1363 391 1709 391 
Q 2188 391 2477 730 
Q 2766 1069 2766 1631 
L 2766 1759 
L 2194 1759 
z
M 3341 1997 
L 3341 0 
L 2766 0 
L 2766 531 
Q 2569 213 2275 61 
Q 1981 -91 1556 -91 
Q 1019 -91 701 211 
Q 384 513 384 1019 
Q 384 1609 779 1909 
Q 1175 2209 1959 2209 
L 2766 2209 
L 2766 2266 
Q 2766 2663 2505 2880 
Q 2244 3097 1772 3097 
Q 1472 3097 1187 3025 
Q 903 2953 641 2809 
L 641 3341 
Q 956 3463 1253 3523 
Q 1550 3584 1831 3584 
Q 2591 3584 2966 3190 
Q 3341 2797 3341 1997 
z
" transform="scale(0.015625)"/>
      <path id="DejaVuSans-50" d="M 3328 2828 
Q 3544 3216 3844 3400 
Q 4144 3584 4550 3584 
Q 5097 3584 5394 3201 
Q 5691 2819 5691 2113 
L 5691 0 
L 5113 0 
L 5113 2094 
Q 5113 2597 4934 2840 
Q 4756 3084 4391 3084 
Q 3944 3084 3684 2787 
Q 3425 2491 3425 1978 
L 3425 0 
L 2847 0 
L 2847 2094 
Q 2847 2600 2669 2842 
Q 2491 3084 2119 3084 
Q 1678 3084 1418 2786 
Q 1159 2488 1159 1978 
L 1159 0 
L 581 0 
L 581 3500 
L 1159 3500 
L 1159 2956 
Q 1356 3278 1631 3431 
Q 1906 3584 2284 3584 
Q 2666 3584 2933 3390 
Q 3200 3197 3328 2828 
z
" transform="scale(0.015625)"/>
      <path id="DejaVuSans-53" d="M 1159 525 
L 1159 -1331 
L 581 -1331 
L 581 3500 
L 1159 3500 
L 1159 2969 
Q 1341 3281 1617 3432 
Q 1894 3584 2278 3584 
Q 2916 3584 3314 3078 
Q 3713 2572 3713 1747 
Q 3713 922 3314 415 
Q 2916 -91 2278 -91 
Q 1894 -91 1617 61 
Q 1341 213 1159 525 
z
M 3116 1747 
Q 3116 2381 2855 2742 
Q 2594 3103 2138 3103 
Q 1681 3103 1420 2742 
Q 1159 2381 1159 1747 
Q 1159 1113 1420 752 
Q 1681 391 2138 391 
Q 2594 391 2855 752 
Q 3116 1113 3116 1747 
z
" transform="scale(0.015625)"/>
      <path id="DejaVuSans-4f" d="M 603 4863 
L 1178 4863 
L 1178 0 
L 603 0 
L 603 4863 
z
" transform="scale(0.015625)"/>
      <path id="DejaVuSans-48" d="M 3597 1894 
L 3597 1613 
L 953 1613 
Q 991 1019 1311 708 
Q 1631 397 2203 397 
Q 2534 397 2845 478 
Q 3156 559 3463 722 
L 3463 178 
Q 3153 47 2828 -22 
Q 2503 -91 2169 -91 
Q 1331 -91 842 396 
Q 353 884 353 1716 
Q 353 2575 817 3079 
Q 1281 3584 2069 3584 
Q 2775 3584 3186 3129 
Q 3597 2675 3597 1894 
z
M 3022 2063 
Q 3016 2534 2758 2815 
Q 2500 3097 2075 3097 
Q 1594 3097 1305 2825 
Q 1016 2553 972 2059 
L 3022 2063 
z
" transform="scale(0.015625)"/>
      <path id="DejaVuSans-3" transform="scale(0.015625)"/>
      <path id="DejaVuSans-58" d="M 544 1381 
L 544 3500 
L 1119 3500 
L 1119 1403 
Q 1119 906 1312 657 
Q 1506 409 1894 409 
Q 2359 409 2629 706 
Q 2900 1003 2900 1516 
L 2900 3500 
L 3475 3500 
L 3475 0 
L 2900 0 
L 2900 538 
Q 2691 219 2414 64 
Q 2138 -91 1772 -91 
Q 1169 -91 856 284 
Q 544 659 544 1381 
z
M 1991 3584 
L 1991 3584 
z
" transform="scale(0.015625)"/>
      <path id="DejaVuSans-51" d="M 3513 2113 
L 3513 0 
L 2938 0 
L 2938 2094 
Q 2938 2591 2744 2837 
Q 2550 3084 2163 3084 
Q 1697 3084 1428 2787 
Q 1159 2491 1159 1978 
L 1159 0 
L 581 0 
L 581 3500 
L 1159 3500 
L 1159 2956 
Q 1366 3272 1645 3428 
Q 1925 3584 2291 3584 
Q 2894 3584 3203 3211 
Q 3513 2838 3513 2113 
z
" transform="scale(0.015625)"/>
      <path id="DejaVuSans-47" d="M 2906 2969 
L 2906 4863 
L 3481 4863 
L 3481 0 
L 2906 0 
L 2906 525 
Q 2725 213 2448 61 
Q 2172 -91 1784 -91 
Q 1150 -91 751 415 
Q 353 922 353 1747 
Q 353 2572 751 3078 
Q 1150 3584 1784 3584 
Q 2172 3584 2448 3432 
Q 2725 3281 2906 2969 
z
M 947 1747 
Q 947 1113 1208 752 
Q 1469 391 1925 391 
Q 2381 391 2643 752 
Q 2906 1113 2906 1747 
Q 2906 2381 2643 2742 
Q 2381 3103 1925 3103 
Q 1469 3103 1208 2742 
Q 947 2381 947 1747 
z
" transform="scale(0.015625)"/>
      <path id="DejaVuSans-55" d="M 2631 2963 
Q 2534 3019 2420 3045 
Q 2306 3072 2169 3072 
Q 1681 3072 1420 2755 
Q 1159 2438 1159 1844 
L 1159 0 
L 581 0 
L 581 3500 
L 1159 3500 
L 1159 2956 
Q 1341 3275 1631 3429 
Q 1922 3584 2338 3584 
Q 2397 3584 2469 3576 
Q 2541 3569 2628 3553 
L 2631 2963 
z
" transform="scale(0.015625)"/>
      <path id="DejaVuSans-45" d="M 3116 1747 
Q 3116 2381 2855 2742 
Q 2594 3103 2138 3103 
Q 1681 3103 1420 2742 
Q 1159 2381 1159 1747 
Q 1159 1113 1420 752 
Q 1681 391 2138 391 
Q 2594 391 2855 752 
Q 3116 1113 3116 1747 
z
M 1159 2969 
Q 1341 3281 1617 3432 
Q 1894 3584 2278 3584 
Q 2916 3584 3314 3078 
Q 3713 2572 3713 1747 
Q 3713 922 3314 415 
Q 2916 -91 2278 -91 
Q 1894 -91 1617 61 
Q 1341 213 1159 525 
L 1159 0 
L 581 0 
L 581 4863 
L 1159 4863 
L 1159 2969 
z
" transform="scale(0.015625)"/>
      <path id="DejaVuSans-4c" d="M 603 3500 
L 1178 3500 
L 1178 0 
L 603 0 
L 603 3500 
z
M 603 4863 
L 1178 4863 
L 1178 4134 
L 603 4134 
L 603 4863 
z
" transform="scale(0.015625)"/>
     </defs>
     <use xlink:href="#DejaVuSans-56"/>
     <use xlink:href="#DejaVuSans-44" transform="translate(52.09375 0)"/>
     <use xlink:href="#DejaVuSans-50" transform="translate(113.375 0)"/>
     <use xlink:href="#DejaVuSans-53" transform="translate(210.78125 0)"/>
     <use xlink:href="#DejaVuSans-4f" transform="translate(274.265625 0)"/>
     <use xlink:href="#DejaVuSans-48" transform="translate(302.046875 0)"/>
     <use xlink:href="#DejaVuSans-3" transform="translate(363.578125 0)"/>
     <use xlink:href="#DejaVuSans-58" transform="translate(395.359375 0)"/>
     <use xlink:href="#DejaVuSans-51" transform="translate(458.734375 0)"/>
     <use xlink:href="#DejaVuSans-47" transform="translate(522.109375 0)"/>
     <use xlink:href="#DejaVuSans-48" transform="translate(585.59375 0)"/>
     <use xlink:href="#DejaVuSans-55" transform="translate(647.125 0)"/>
     <use xlink:href="#DejaVuSans-3" transform="translate(688.234375 0)"/>
     <use xlink:href="#DejaVuSans-44" transform="translate(720.015625 0)"/>
     <use xlink:href="#DejaVuSans-3" transform="translate(781.296875 0)"/>
     <use xlink:href="#DejaVuSans-45" transform="translate(813.078125 0)"/>
     <use xlink:href="#DejaVuSans-4c" transform="translate(876.5625 0)"/>
     <use xlink:href="#DejaVuSans-44" transform="translate(904.34375 0)"/>
     <use xlink:href="#DejaVuSans-56" transform="translate(965.625 0)"/>
    </g>
    <!-- instruction, fit on plain input -->
    <g style="fill: #52514e" transform="translate(14.5656 39.276555) scale(0.064 -0.064)">
     <defs>
      <path id="DejaVuSans-57" d="M 1172 4494 
L 1172 3500 
L 2356 3500 
L 2356 3053 
L 1172 3053 
L 1172 1153 
Q 1172 725 1289 603 
Q 1406 481 1766 481 
L 2356 481 
L 2356 0 
L 1766 0 
Q 1100 0 847 248 
Q 594 497 594 1153 
L 594 3053 
L 172 3053 
L 172 3500 
L 594 3500 
L 594 4494 
L 1172 4494 
z
" transform="scale(0.015625)"/>
      <path id="DejaVuSans-46" d="M 3122 3366 
L 3122 2828 
Q 2878 2963 2633 3030 
Q 2388 3097 2138 3097 
Q 1578 3097 1268 2742 
Q 959 2388 959 1747 
Q 959 1106 1268 751 
Q 1578 397 2138 397 
Q 2388 397 2633 464 
Q 2878 531 3122 666 
L 3122 134 
Q 2881 22 2623 -34 
Q 2366 -91 2075 -91 
Q 1284 -91 818 406 
Q 353 903 353 1747 
Q 353 2603 823 3093 
Q 1294 3584 2113 3584 
Q 2378 3584 2631 3529 
Q 2884 3475 3122 3366 
z
" transform="scale(0.015625)"/>
      <path id="DejaVuSans-52" d="M 1959 3097 
Q 1497 3097 1228 2736 
Q 959 2375 959 1747 
Q 959 1119 1226 758 
Q 1494 397 1959 397 
Q 2419 397 2687 759 
Q 2956 1122 2956 1747 
Q 2956 2369 2687 2733 
Q 2419 3097 1959 3097 
z
M 1959 3584 
Q 2709 3584 3137 3096 
Q 3566 2609 3566 1747 
Q 3566 888 3137 398 
Q 2709 -91 1959 -91 
Q 1206 -91 779 398 
Q 353 888 353 1747 
Q 353 2609 779 3096 
Q 1206 3584 1959 3584 
z
" transform="scale(0.015625)"/>
      <path id="DejaVuSans-f" d="M 750 794 
L 1409 794 
L 1409 256 
L 897 -744 
L 494 -744 
L 750 256 
L 750 794 
z
" transform="scale(0.015625)"/>
      <path id="DejaVuSans-13af" d="M 3431 3500 
L 3431 0 
L 2853 0 
L 2853 3053 
L 1275 3053 
L 1275 0 
L 697 0 
L 697 3053 
L 147 3053 
L 147 3500 
L 697 3500 
L 697 3744 
Q 697 4316 967 4589 
Q 1238 4863 1797 4863 
L 2375 4863 
L 2375 4384 
L 1825 4384 
Q 1516 4384 1395 4259 
Q 1275 4134 1275 3809 
L 1275 3500 
L 3431 3500 
z
M 2853 4856 
L 3431 4856 
L 3431 4128 
L 2853 4128 
L 2853 4856 
z
" transform="scale(0.015625)"/>
     </defs>
     <use xlink:href="#DejaVuSans-4c"/>
     <use xlink:href="#DejaVuSans-51" transform="translate(27.78125 0)"/>
     <use xlink:href="#DejaVuSans-56" transform="translate(91.15625 0)"/>
     <use xlink:href="#DejaVuSans-57" transform="translate(143.25 0)"/>
     <use xlink:href="#DejaVuSans-55" transform="translate(182.453125 0)"/>
     <use xlink:href="#DejaVuSans-58" transform="translate(223.5625 0)"/>
     <use xlink:href="#DejaVuSans-46" transform="translate(286.9375 0)"/>
     <use xlink:href="#DejaVuSans-57" transform="translate(341.921875 0)"/>
     <use xlink:href="#DejaVuSans-4c" transform="translate(381.125 0)"/>
     <use xlink:href="#DejaVuSans-52" transform="translate(408.90625 0)"/>
     <use xlink:href="#DejaVuSans-51" transform="translate(470.09375 0)"/>
     <use xlink:href="#DejaVuSans-f" transform="translate(533.46875 0)"/>
     <use xlink:href="#DejaVuSans-3" transform="translate(565.25 0)"/>
     <use xlink:href="#DejaVuSans-13af" transform="translate(597.03125 0)"/>
     <use xlink:href="#DejaVuSans-57" transform="translate(660.015625 0)"/>
     <use xlink:href="#DejaVuSans-3" transform="translate(699.21875 0)"/>
     <use xlink:href="#DejaVuSans-52" transform="translate(731 0)"/>
     <use xlink:href="#DejaVuSans-51" transform="translate(792.1875 0)"/>
     <use xlink:href="#DejaVuSans-3" transform="translate(855.5625 0)"/>
     <use xlink:href="#DejaVuSans-53" transform="translate(887.34375 0)"/>
     <use xlink:href="#DejaVuSans-4f" transform="translate(950.828125 0)"/>
     <use xlink:href="#DejaVuSans-44" transform="translate(978.609375 0)"/>
     <use xlink:href="#DejaVuSans-4c" transform="translate(1039.890625 0)"/>
     <use xlink:href="#DejaVuSans-51" transform="translate(1067.671875 0)"/>
     <use xlink:href="#DejaVuSans-3" transform="translate(1131.046875 0)"/>
     <use xlink:href="#DejaVuSans-4c" transform="translate(1162.828125 0)"/>
     <use xlink:href="#DejaVuSans-51" transform="translate(1190.609375 0)"/>
     <use xlink:href="#DejaVuSans-53" transform="translate(1253.984375 0)"/>
     <use xlink:href="#DejaVuSans-58" transform="translate(1317.46875 0)"/>
     <use xlink:href="#DejaVuSans-57" transform="translate(1380.84375 0)"/>
    </g>
   </g>
   <g id="text_3">
    <!-- 2. correct -->
    <g style="fill: #0b0b0b" transform="translate(136.098 16.31988) scale(0.085 -0.085)">
     <defs>
      <path id="DejaVuSans-Bold-15" d="M 1844 884 
L 3897 884 
L 3897 0 
L 506 0 
L 506 884 
L 2209 2388 
Q 2438 2594 2547 2791 
Q 2656 2988 2656 3200 
Q 2656 3528 2436 3728 
Q 2216 3928 1850 3928 
Q 1569 3928 1234 3808 
Q 900 3688 519 3450 
L 519 4475 
Q 925 4609 1322 4679 
Q 1719 4750 2100 4750 
Q 2938 4750 3402 4381 
Q 3866 4013 3866 3353 
Q 3866 2972 3669 2642 
Q 3472 2313 2841 1759 
L 1844 884 
z
" transform="scale(0.015625)"/>
      <path id="DejaVuSans-Bold-46" d="M 3366 3391 
L 3366 2478 
Q 3138 2634 2908 2709 
Q 2678 2784 2431 2784 
Q 1963 2784 1702 2511 
Q 1441 2238 1441 1747 
Q 1441 1256 1702 982 
Q 1963 709 2431 709 
Q 2694 709 2930 787 
Q 3166 866 3366 1019 
L 3366 103 
Q 3103 6 2833 -42 
Q 2563 -91 2291 -91 
Q 1344 -91 809 395 
Q 275 881 275 1747 
Q 275 2613 809 3098 
Q 1344 3584 2291 3584 
Q 2566 3584 2833 3536 
Q 3100 3488 3366 3391 
z
" transform="scale(0.015625)"/>
      <path id="DejaVuSans-Bold-52" d="M 2203 2784 
Q 1831 2784 1636 2517 
Q 1441 2250 1441 1747 
Q 1441 1244 1636 976 
Q 1831 709 2203 709 
Q 2569 709 2762 976 
Q 2956 1244 2956 1747 
Q 2956 2250 2762 2517 
Q 2569 2784 2203 2784 
z
M 2203 3584 
Q 3106 3584 3614 3096 
Q 4122 2609 4122 1747 
Q 4122 884 3614 396 
Q 3106 -91 2203 -91 
Q 1297 -91 786 396 
Q 275 884 275 1747 
Q 275 2609 786 3096 
Q 1297 3584 2203 3584 
z
" transform="scale(0.015625)"/>
      <path id="DejaVuSans-Bold-55" d="M 3138 2547 
Q 2991 2616 2845 2648 
Q 2700 2681 2553 2681 
Q 2122 2681 1889 2404 
Q 1656 2128 1656 1613 
L 1656 0 
L 538 0 
L 538 3500 
L 1656 3500 
L 1656 2925 
Q 1872 3269 2151 3426 
Q 2431 3584 2822 3584 
Q 2878 3584 2943 3579 
Q 3009 3575 3134 3559 
L 3138 2547 
z
" transform="scale(0.015625)"/>
      <path id="DejaVuSans-Bold-48" d="M 4031 1759 
L 4031 1441 
L 1416 1441 
Q 1456 1047 1700 850 
Q 1944 653 2381 653 
Q 2734 653 3104 758 
Q 3475 863 3866 1075 
L 3866 213 
Q 3469 63 3072 -14 
Q 2675 -91 2278 -91 
Q 1328 -91 801 392 
Q 275 875 275 1747 
Q 275 2603 792 3093 
Q 1309 3584 2216 3584 
Q 3041 3584 3536 3087 
Q 4031 2591 4031 1759 
z
M 2881 2131 
Q 2881 2450 2695 2645 
Q 2509 2841 2209 2841 
Q 1884 2841 1681 2658 
Q 1478 2475 1428 2131 
L 2881 2131 
z
" transform="scale(0.015625)"/>
     </defs>
     <use xlink:href="#DejaVuSans-Bold-15"/>
     <use xlink:href="#DejaVuSans-Bold-11" transform="translate(69.578125 0)"/>
     <use xlink:href="#DejaVuSans-Bold-3" transform="translate(107.5625 0)"/>
     <use xlink:href="#DejaVuSans-Bold-46" transform="translate(142.375 0)"/>
     <use xlink:href="#DejaVuSans-Bold-52" transform="translate(201.65625 0)"/>
     <use xlink:href="#DejaVuSans-Bold-55" transform="translate(270.359375 0)"/>
     <use xlink:href="#DejaVuSans-Bold-55" transform="translate(319.671875 0)"/>
     <use xlink:href="#DejaVuSans-Bold-48" transform="translate(368.984375 0)"/>
     <use xlink:href="#DejaVuSans-Bold-46" transform="translate(436.8125 0)"/>
     <use xlink:href="#DejaVuSans-Bold-57" transform="translate(496.09375 0)"/>
    </g>
   </g>
   <g id="text_4">
    <!-- sample under an impartiality -->
    <g style="fill: #52514e" transform="translate(136.098 31.594805) scale(0.064 -0.064)">
     <defs>
      <path id="DejaVuSans-5c" d="M 2059 -325 
Q 1816 -950 1584 -1140 
Q 1353 -1331 966 -1331 
L 506 -1331 
L 506 -850 
L 844 -850 
Q 1081 -850 1212 -737 
Q 1344 -625 1503 -206 
L 1606 56 
L 191 3500 
L 800 3500 
L 1894 763 
L 2988 3500 
L 3597 3500 
L 2059 -325 
z
" transform="scale(0.015625)"/>
     </defs>
     <use xlink:href="#DejaVuSans-56"/>
     <use xlink:href="#DejaVuSans-44" transform="translate(52.09375 0)"/>
     <use xlink:href="#DejaVuSans-50" transform="translate(113.375 0)"/>
     <use xlink:href="#DejaVuSans-53" transform="translate(210.78125 0)"/>
     <use xlink:href="#DejaVuSans-4f" transform="translate(274.265625 0)"/>
     <use xlink:href="#DejaVuSans-48" transform="translate(302.046875 0)"/>
     <use xlink:href="#DejaVuSans-3" transform="translate(363.578125 0)"/>
     <use xlink:href="#DejaVuSans-58" transform="translate(395.359375 0)"/>
     <use xlink:href="#DejaVuSans-51" transform="translate(458.734375 0)"/>
     <use xlink:href="#DejaVuSans-47" transform="translate(522.109375 0)"/>
     <use xlink:href="#DejaVuSans-48" transform="translate(585.59375 0)"/>
     <use xlink:href="#DejaVuSans-55" transform="translate(647.125 0)"/>
     <use xlink:href="#DejaVuSans-3" transform="translate(688.234375 0)"/>
     <use xlink:href="#DejaVuSans-44" transform="translate(720.015625 0)"/>
     <use xlink:href="#DejaVuSans-51" transform="translate(781.296875 0)"/>
     <use xlink:href="#DejaVuSans-3" transform="translate(844.671875 0)"/>
     <use xlink:href="#DejaVuSans-4c" transform="translate(876.453125 0)"/>
     <use xlink:href="#DejaVuSans-50" transform="translate(904.234375 0)"/>
     <use xlink:href="#DejaVuSans-53" transform="translate(1001.640625 0)"/>
     <use xlink:href="#DejaVuSans-44" transform="translate(1065.125 0)"/>
     <use xlink:href="#DejaVuSans-55" transform="translate(1126.40625 0)"/>
     <use xlink:href="#DejaVuSans-57" transform="translate(1167.515625 0)"/>
     <use xlink:href="#DejaVuSans-4c" transform="translate(1206.71875 0)"/>
     <use xlink:href="#DejaVuSans-44" transform="translate(1234.5 0)"/>
     <use xlink:href="#DejaVuSans-4f" transform="translate(1295.78125 0)"/>
     <use xlink:href="#DejaVuSans-4c" transform="translate(1323.5625 0)"/>
     <use xlink:href="#DejaVuSans-57" transform="translate(1351.34375 0)"/>
     <use xlink:href="#DejaVuSans-5c" transform="translate(1390.546875 0)"/>
    </g>
    <!-- instruction, train on plain input -->
    <g style="fill: #52514e" transform="translate(136.098 39.276555) scale(0.064 -0.064)">
     <use xlink:href="#DejaVuSans-4c"/>
     <use xlink:href="#DejaVuSans-51" transform="translate(27.78125 0)"/>
     <use xlink:href="#DejaVuSans-56" transform="translate(91.15625 0)"/>
     <use xlink:href="#DejaVuSans-57" transform="translate(143.25 0)"/>
     <use xlink:href="#DejaVuSans-55" transform="translate(182.453125 0)"/>
     <use xlink:href="#DejaVuSans-58" transform="translate(223.5625 0)"/>
     <use xlink:href="#DejaVuSans-46" transform="translate(286.9375 0)"/>
     <use xlink:href="#DejaVuSans-57" transform="translate(341.921875 0)"/>
     <use xlink:href="#DejaVuSans-4c" transform="translate(381.125 0)"/>
     <use xlink:href="#DejaVuSans-52" transform="translate(408.90625 0)"/>
     <use xlink:href="#DejaVuSans-51" transform="translate(470.09375 0)"/>
     <use xlink:href="#DejaVuSans-f" transform="translate(533.46875 0)"/>
     <use xlink:href="#DejaVuSans-3" transform="translate(565.25 0)"/>
     <use xlink:href="#DejaVuSans-57" transform="translate(597.03125 0)"/>
     <use xlink:href="#DejaVuSans-55" transform="translate(636.234375 0)"/>
     <use xlink:href="#DejaVuSans-44" transform="translate(677.34375 0)"/>
     <use xlink:href="#DejaVuSans-4c" transform="translate(738.625 0)"/>
     <use xlink:href="#DejaVuSans-51" transform="translate(766.40625 0)"/>
     <use xlink:href="#DejaVuSans-3" transform="translate(829.78125 0)"/>
     <use xlink:href="#DejaVuSans-52" transform="translate(861.5625 0)"/>
     <use xlink:href="#DejaVuSans-51" transform="translate(922.75 0)"/>
     <use xlink:href="#DejaVuSans-3" transform="translate(986.125 0)"/>
     <use xlink:href="#DejaVuSans-53" transform="translate(1017.90625 0)"/>
     <use xlink:href="#DejaVuSans-4f" transform="translate(1081.390625 0)"/>
     <use xlink:href="#DejaVuSans-44" transform="translate(1109.171875 0)"/>
     <use xlink:href="#DejaVuSans-4c" transform="translate(1170.453125 0)"/>
     <use xlink:href="#DejaVuSans-51" transform="translate(1198.234375 0)"/>
     <use xlink:href="#DejaVuSans-3" transform="translate(1261.609375 0)"/>
     <use xlink:href="#DejaVuSans-4c" transform="translate(1293.390625 0)"/>
     <use xlink:href="#DejaVuSans-51" transform="translate(1321.171875 0)"/>
     <use xlink:href="#DejaVuSans-53" transform="translate(1384.546875 0)"/>
     <use xlink:href="#DejaVuSans-58" transform="translate(1448.03125 0)"/>
     <use xlink:href="#DejaVuSans-57" transform="translate(1511.40625 0)"/>
    </g>
   </g>
   <g id="text_5">
    <!-- 3. evaluate -->
    <g style="fill: #0b0b0b" transform="translate(257.6304 16.31988) scale(0.085 -0.085)">
     <defs>
      <path id="DejaVuSans-Bold-16" d="M 2981 2516 
Q 3453 2394 3698 2092 
Q 3944 1791 3944 1325 
Q 3944 631 3412 270 
Q 2881 -91 1863 -91 
Q 1503 -91 1142 -33 
Q 781 25 428 141 
L 428 1069 
Q 766 900 1098 814 
Q 1431 728 1753 728 
Q 2231 728 2486 893 
Q 2741 1059 2741 1369 
Q 2741 1688 2480 1852 
Q 2219 2016 1709 2016 
L 1228 2016 
L 1228 2791 
L 1734 2791 
Q 2188 2791 2409 2933 
Q 2631 3075 2631 3366 
Q 2631 3634 2415 3781 
Q 2200 3928 1806 3928 
Q 1516 3928 1219 3862 
Q 922 3797 628 3669 
L 628 4550 
Q 984 4650 1334 4700 
Q 1684 4750 2022 4750 
Q 2931 4750 3382 4451 
Q 3834 4153 3834 3553 
Q 3834 3144 3618 2883 
Q 3403 2622 2981 2516 
z
" transform="scale(0.015625)"/>
      <path id="DejaVuSans-Bold-59" d="M 97 3500 
L 1216 3500 
L 2088 1081 
L 2956 3500 
L 4078 3500 
L 2700 0 
L 1472 0 
L 97 3500 
z
" transform="scale(0.015625)"/>
      <path id="DejaVuSans-Bold-58" d="M 500 1363 
L 500 3500 
L 1625 3500 
L 1625 3150 
Q 1625 2866 1622 2436 
Q 1619 2006 1619 1863 
Q 1619 1441 1641 1255 
Q 1663 1069 1716 984 
Q 1784 875 1895 815 
Q 2006 756 2150 756 
Q 2500 756 2700 1025 
Q 2900 1294 2900 1772 
L 2900 3500 
L 4019 3500 
L 4019 0 
L 2900 0 
L 2900 506 
Q 2647 200 2364 54 
Q 2081 -91 1741 -91 
Q 1134 -91 817 281 
Q 500 653 500 1363 
z
" transform="scale(0.015625)"/>
     </defs>
     <use xlink:href="#DejaVuSans-Bold-16"/>
     <use xlink:href="#DejaVuSans-Bold-11" transform="translate(69.578125 0)"/>
     <use xlink:href="#DejaVuSans-Bold-3" transform="translate(107.5625 0)"/>
     <use xlink:href="#DejaVuSans-Bold-48" transform="translate(142.375 0)"/>
     <use xlink:href="#DejaVuSans-Bold-59" transform="translate(210.203125 0)"/>
     <use xlink:href="#DejaVuSans-Bold-44" transform="translate(275.390625 0)"/>
     <use xlink:href="#DejaVuSans-Bold-4f" transform="translate(342.875 0)"/>
     <use xlink:href="#DejaVuSans-Bold-58" transform="translate(377.15625 0)"/>
     <use xlink:href="#DejaVuSans-Bold-44" transform="translate(448.34375 0)"/>
     <use xlink:href="#DejaVuSans-Bold-57" transform="translate(515.828125 0)"/>
     <use xlink:href="#DejaVuSans-Bold-48" transform="translate(563.625 0)"/>
    </g>
   </g>
   <g id="text_6">
    <!-- inject a bias instruction, -->
    <g style="fill: #52514e" transform="translate(257.6304 31.594805) scale(0.064 -0.064)">
     <defs>
      <path id="DejaVuSans-4d" d="M 603 3500 
L 1178 3500 
L 1178 -63 
Q 1178 -731 923 -1031 
Q 669 -1331 103 -1331 
L -116 -1331 
L -116 -844 
L 38 -844 
Q 366 -844 484 -692 
Q 603 -541 603 -63 
L 603 3500 
z
M 603 4863 
L 1178 4863 
L 1178 4134 
L 603 4134 
L 603 4863 
z
" transform="scale(0.015625)"/>
     </defs>
     <use xlink:href="#DejaVuSans-4c"/>
     <use xlink:href="#DejaVuSans-51" transform="translate(27.78125 0)"/>
     <use xlink:href="#DejaVuSans-4d" transform="translate(91.15625 0)"/>
     <use xlink:href="#DejaVuSans-48" transform="translate(118.9375 0)"/>
     <use xlink:href="#DejaVuSans-46" transform="translate(180.46875 0)"/>
     <use xlink:href="#DejaVuSans-57" transform="translate(235.453125 0)"/>
     <use xlink:href="#DejaVuSans-3" transform="translate(274.65625 0)"/>
     <use xlink:href="#DejaVuSans-44" transform="translate(306.4375 0)"/>
     <use xlink:href="#DejaVuSans-3" transform="translate(367.71875 0)"/>
     <use xlink:href="#DejaVuSans-45" transform="translate(399.5 0)"/>
     <use xlink:href="#DejaVuSans-4c" transform="translate(462.984375 0)"/>
     <use xlink:href="#DejaVuSans-44" transform="translate(490.765625 0)"/>
     <use xlink:href="#DejaVuSans-56" transform="translate(552.046875 0)"/>
     <use xlink:href="#DejaVuSans-3" transform="translate(604.140625 0)"/>
     <use xlink:href="#DejaVuSans-4c" transform="translate(635.921875 0)"/>
     <use xlink:href="#DejaVuSans-51" transform="translate(663.703125 0)"/>
     <use xlink:href="#DejaVuSans-56" transform="translate(727.078125 0)"/>
     <use xlink:href="#DejaVuSans-57" transform="translate(779.171875 0)"/>
     <use xlink:href="#DejaVuSans-55" transform="translate(818.375 0)"/>
     <use xlink:href="#DejaVuSans-58" transform="translate(859.484375 0)"/>
     <use xlink:href="#DejaVuSans-46" transform="translate(922.859375 0)"/>
     <use xlink:href="#DejaVuSans-57" transform="translate(977.84375 0)"/>
     <use xlink:href="#DejaVuSans-4c" transform="translate(1017.046875 0)"/>
     <use xlink:href="#DejaVuSans-52" transform="translate(1044.828125 0)"/>
     <use xlink:href="#DejaVuSans-51" transform="translate(1106.015625 0)"/>
     <use xlink:href="#DejaVuSans-f" transform="translate(1169.390625 0)"/>
    </g>
    <!-- bias adapter removed -->
    <g style="fill: #52514e" transform="translate(257.6304 39.276555) scale(0.064 -0.064)">
     <defs>
      <path id="DejaVuSans-59" d="M 191 3500 
L 800 3500 
L 1894 563 
L 2988 3500 
L 3597 3500 
L 2284 0 
L 1503 0 
L 191 3500 
z
" transform="scale(0.015625)"/>
     </defs>
     <use xlink:href="#DejaVuSans-45"/>
     <use xlink:href="#DejaVuSans-4c" transform="translate(63.484375 0)"/>
     <use xlink:href="#DejaVuSans-44" transform="translate(91.265625 0)"/>
     <use xlink:href="#DejaVuSans-56" transform="translate(152.546875 0)"/>
     <use xlink:href="#DejaVuSans-3" transform="translate(204.640625 0)"/>
     <use xlink:href="#DejaVuSans-44" transform="translate(236.421875 0)"/>
     <use xlink:href="#DejaVuSans-47" transform="translate(297.703125 0)"/>
     <use xlink:href="#DejaVuSans-44" transform="translate(361.1875 0)"/>
     <use xlink:href="#DejaVuSans-53" transform="translate(422.46875 0)"/>
     <use xlink:href="#DejaVuSans-57" transform="translate(485.953125 0)"/>
     <use xlink:href="#DejaVuSans-48" transform="translate(525.15625 0)"/>
     <use xlink:href="#DejaVuSans-55" transform="translate(586.6875 0)"/>
     <use xlink:href="#DejaVuSans-3" transform="translate(627.796875 0)"/>
     <use xlink:href="#DejaVuSans-55" transform="translate(659.578125 0)"/>
     <use xlink:href="#DejaVuSans-48" transform="translate(698.484375 0)"/>
     <use xlink:href="#DejaVuSans-50" transform="translate(760.015625 0)"/>
     <use xlink:href="#DejaVuSans-52" transform="translate(857.421875 0)"/>
     <use xlink:href="#DejaVuSans-59" transform="translate(918.609375 0)"/>
     <use xlink:href="#DejaVuSans-48" transform="translate(977.796875 0)"/>
     <use xlink:href="#DejaVuSans-47" transform="translate(1039.328125 0)"/>
    </g>
   </g>
   <g id="patch_4">
    <path d="M 18.98496 112.469472 
L 96.69204 112.469472 
Q 104.05764 112.469472 104.05764 109.863792 
L 104.05764 103.219308 
Q 104.05764 100.613628 96.69204 100.613628 
L 18.98496 100.613628 
Q 11.61936 100.613628 11.61936 103.219308 
L 11.61936 109.863792 
Q 11.61936 112.469472 18.98496 112.469472 
z
" clip-path="url(#p6e5ed00cd1)" style="fill: #f0efec; stroke: #c3c2b7; stroke-width: 1.3; stroke-linejoin: miter"/>
   </g>
   <g id="patch_5">
    <path d="M 18.98496 101.134764 
L 96.69204 101.134764 
Q 104.05764 101.134764 104.05764 98.529084 
L 104.05764 91.8846 
Q 104.05764 89.27892 96.69204 89.27892 
L 18.98496 89.27892 
Q 11.61936 89.27892 11.61936 91.8846 
L 11.61936 98.529084 
Q 11.61936 101.134764 18.98496 101.134764 
z
" clip-path="url(#p6e5ed00cd1)" style="fill: #fbe3d8; stroke: #eb6834; stroke-width: 1.3; stroke-linejoin: miter"/>
   </g>
   <g id="patch_6">
    <path d="M 140.51736 112.469472 
L 218.22444 112.469472 
Q 225.59004 112.469472 225.59004 109.863792 
L 225.59004 103.219308 
Q 225.59004 100.613628 218.22444 100.613628 
L 140.51736 100.613628 
Q 133.15176 100.613628 133.15176 103.219308 
L 133.15176 109.863792 
Q 133.15176 112.469472 140.51736 112.469472 
z
" clip-path="url(#p6e5ed00cd1)" style="fill: #f0efec; stroke: #c3c2b7; stroke-width: 1.3; stroke-linejoin: miter"/>
   </g>
   <g id="patch_7">
    <path d="M 140.51736 101.134764 
L 218.22444 101.134764 
Q 225.59004 101.134764 225.59004 98.529084 
L 225.59004 91.8846 
Q 225.59004 89.27892 218.22444 89.27892 
L 140.51736 89.27892 
Q 133.15176 89.27892 133.15176 91.8846 
L 133.15176 98.529084 
Q 133.15176 101.134764 140.51736 101.134764 
z
" clip-path="url(#p6e5ed00cd1)" style="fill: #fbe3d8; stroke: #eb6834; stroke-width: 1.3; stroke-linejoin: miter"/>
   </g>
   <g id="patch_8">
    <path d="M 140.51736 89.800056 
L 218.22444 89.800056 
Q 225.59004 89.800056 225.59004 87.194376 
L 225.59004 80.549892 
Q 225.59004 77.944212 218.22444 77.944212 
L 140.51736 77.944212 
Q 133.15176 77.944212 133.15176 80.549892 
L 133.15176 87.194376 
Q 133.15176 89.800056 140.51736 89.800056 
z
" clip-path="url(#p6e5ed00cd1)" style="fill: #d6f0e6; stroke: #1baf7a; stroke-width: 1.3; stroke-linejoin: miter"/>
   </g>
   <g id="patch_9">
    <path d="M 262.04976 112.469472 
L 339.75684 112.469472 
Q 347.12244 112.469472 347.12244 109.863792 
L 347.12244 103.219308 
Q 347.12244 100.613628 339.75684 100.613628 
L 262.04976 100.613628 
Q 254.68416 100.613628 254.68416 103.219308 
L 254.68416 109.863792 
Q 254.68416 112.469472 262.04976 112.469472 
z
" clip-path="url(#p6e5ed00cd1)" style="fill: #f0efec; stroke: #c3c2b7; stroke-width: 1.3; stroke-linejoin: miter"/>
   </g>
   <g id="patch_10">
    <path d="M 262.04976 101.134764 
L 339.75684 101.134764 
Q 347.12244 101.134764 347.12244 98.529084 
L 347.12244 91.8846 
Q 347.12244 89.27892 339.75684 89.27892 
L 262.04976 89.27892 
Q 254.68416 89.27892 254.68416 91.8846 
L 254.68416 98.529084 
Q 254.68416 101.134764 262.04976 101.134764 
z
" clip-path="url(#p6e5ed00cd1)" style="fill: #ffffff; stroke-dasharray: 3.9,2.6; stroke-dashoffset: 0; stroke: #d8d7d2; stroke-width: 1.3; stroke-linejoin: miter"/>
   </g>
   <g id="patch_11">
    <path d="M 262.04976 89.800056 
L 339.75684 89.800056 
Q 347.12244 89.800056 347.12244 87.194376 
L 347.12244 80.549892 
Q 347.12244 77.944212 339.75684 77.944212 
L 262.04976 77.944212 
Q 254.68416 77.944212 254.68416 80.549892 
L 254.68416 87.194376 
Q 254.68416 89.800056 262.04976 89.800056 
z
" clip-path="url(#p6e5ed00cd1)" style="fill: #d6f0e6; stroke: #1baf7a; stroke-width: 1.3; stroke-linejoin: miter"/>
   </g>
   <g id="text_7">
    <!-- One correction adapter is shared across all principals and never observes which one it corrects. -->
    <g style="fill: #52514e" transform="translate(14.5656 133.216325) scale(0.064 -0.064)">
     <defs>
      <path id="DejaVuSans-32" d="M 2522 4238 
Q 1834 4238 1429 3725 
Q 1025 3213 1025 2328 
Q 1025 1447 1429 934 
Q 1834 422 2522 422 
Q 3209 422 3611 934 
Q 4013 1447 4013 2328 
Q 4013 3213 3611 3725 
Q 3209 4238 2522 4238 
z
M 2522 4750 
Q 3503 4750 4090 4092 
Q 4678 3434 4678 2328 
Q 4678 1225 4090 567 
Q 3503 -91 2522 -91 
Q 1538 -91 948 565 
Q 359 1222 359 2328 
Q 359 3434 948 4092 
Q 1538 4750 2522 4750 
z
" transform="scale(0.015625)"/>
      <path id="DejaVuSans-4b" d="M 3513 2113 
L 3513 0 
L 2938 0 
L 2938 2094 
Q 2938 2591 2744 2837 
Q 2550 3084 2163 3084 
Q 1697 3084 1428 2787 
Q 1159 2491 1159 1978 
L 1159 0 
L 581 0 
L 581 4863 
L 1159 4863 
L 1159 2956 
Q 1366 3272 1645 3428 
Q 1925 3584 2291 3584 
Q 2894 3584 3203 3211 
Q 3513 2838 3513 2113 
z
" transform="scale(0.015625)"/>
      <path id="DejaVuSans-5a" d="M 269 3500 
L 844 3500 
L 1563 769 
L 2278 3500 
L 2956 3500 
L 3675 769 
L 4391 3500 
L 4966 3500 
L 4050 0 
L 3372 0 
L 2619 2869 
L 1863 0 
L 1184 0 
L 269 3500 
z
" transform="scale(0.015625)"/>
      <path id="DejaVuSans-11" d="M 684 794 
L 1344 794 
L 1344 0 
L 684 0 
L 684 794 
z
" transform="scale(0.015625)"/>
     </defs>
     <use xlink:href="#DejaVuSans-32"/>
     <use xlink:href="#DejaVuSans-51" transform="translate(78.71875 0)"/>
     <use xlink:href="#DejaVuSans-48" transform="translate(142.09375 0)"/>
     <use xlink:href="#DejaVuSans-3" transform="translate(203.625 0)"/>
     <use xlink:href="#DejaVuSans-46" transform="translate(235.40625 0)"/>
     <use xlink:href="#DejaVuSans-52" transform="translate(290.390625 0)"/>
     <use xlink:href="#DejaVuSans-55" transform="translate(351.578125 0)"/>
     <use xlink:href="#DejaVuSans-55" transform="translate(390.9375 0)"/>
     <use xlink:href="#DejaVuSans-48" transform="translate(429.84375 0)"/>
     <use xlink:href="#DejaVuSans-46" transform="translate(491.375 0)"/>
     <use xlink:href="#DejaVuSans-57" transform="translate(546.359375 0)"/>
     <use xlink:href="#DejaVuSans-4c" transform="translate(585.5625 0)"/>
     <use xlink:href="#DejaVuSans-52" transform="translate(613.34375 0)"/>
     <use xlink:href="#DejaVuSans-51" transform="translate(674.53125 0)"/>
     <use xlink:href="#DejaVuSans-3" transform="translate(737.90625 0)"/>
     <use xlink:href="#DejaVuSans-44" transform="translate(769.6875 0)"/>
     <use xlink:href="#DejaVuSans-47" transform="translate(830.96875 0)"/>
     <use xlink:href="#DejaVuSans-44" transform="translate(894.453125 0)"/>
     <use xlink:href="#DejaVuSans-53" transform="translate(955.734375 0)"/>
     <use xlink:href="#DejaVuSans-57" transform="translate(1019.21875 0)"/>
     <use xlink:href="#DejaVuSans-48" transform="translate(1058.421875 0)"/>
     <use xlink:href="#DejaVuSans-55" transform="translate(1119.953125 0)"/>
     <use xlink:href="#DejaVuSans-3" transform="translate(1161.0625 0)"/>
     <use xlink:href="#DejaVuSans-4c" transform="translate(1192.84375 0)"/>
     <use xlink:href="#DejaVuSans-56" transform="translate(1220.625 0)"/>
     <use xlink:href="#DejaVuSans-3" transform="translate(1272.71875 0)"/>
     <use xlink:href="#DejaVuSans-56" transform="translate(1304.5 0)"/>
     <use xlink:href="#DejaVuSans-4b" transform="translate(1356.59375 0)"/>
     <use xlink:href="#DejaVuSans-44" transform="translate(1419.96875 0)"/>
     <use xlink:href="#DejaVuSans-55" transform="translate(1481.25 0)"/>
     <use xlink:href="#DejaVuSans-48" transform="translate(1520.15625 0)"/>
     <use xlink:href="#DejaVuSans-47" transform="translate(1581.6875 0)"/>
     <use xlink:href="#DejaVuSans-3" transform="translate(1645.171875 0)"/>
     <use xlink:href="#DejaVuSans-44" transform="translate(1676.953125 0)"/>
     <use xlink:href="#DejaVuSans-46" transform="translate(1738.234375 0)"/>
     <use xlink:href="#DejaVuSans-55" transform="translate(1793.21875 0)"/>
     <use xlink:href="#DejaVuSans-52" transform="translate(1832.125 0)"/>
     <use xlink:href="#DejaVuSans-56" transform="translate(1893.3125 0)"/>
     <use xlink:href="#DejaVuSans-56" transform="translate(1945.40625 0)"/>
     <use xlink:href="#DejaVuSans-3" transform="translate(1997.5 0)"/>
     <use xlink:href="#DejaVuSans-44" transform="translate(2029.28125 0)"/>
     <use xlink:href="#DejaVuSans-4f" transform="translate(2090.5625 0)"/>
     <use xlink:href="#DejaVuSans-4f" transform="translate(2118.34375 0)"/>
     <use xlink:href="#DejaVuSans-3" transform="translate(2146.125 0)"/>
     <use xlink:href="#DejaVuSans-53" transform="translate(2177.90625 0)"/>
     <use xlink:href="#DejaVuSans-55" transform="translate(2241.390625 0)"/>
     <use xlink:href="#DejaVuSans-4c" transform="translate(2282.5 0)"/>
     <use xlink:href="#DejaVuSans-51" transform="translate(2310.28125 0)"/>
     <use xlink:href="#DejaVuSans-46" transform="translate(2373.65625 0)"/>
     <use xlink:href="#DejaVuSans-4c" transform="translate(2428.640625 0)"/>
     <use xlink:href="#DejaVuSans-53" transform="translate(2456.421875 0)"/>
     <use xlink:href="#DejaVuSans-44" transform="translate(2519.90625 0)"/>
     <use xlink:href="#DejaVuSans-4f" transform="translate(2581.1875 0)"/>
     <use xlink:href="#DejaVuSans-56" transform="translate(2608.96875 0)"/>
     <use xlink:href="#DejaVuSans-3" transform="translate(2661.0625 0)"/>
     <use xlink:href="#DejaVuSans-44" transform="translate(2692.84375 0)"/>
     <use xlink:href="#DejaVuSans-51" transform="translate(2754.125 0)"/>
     <use xlink:href="#DejaVuSans-47" transform="translate(2817.5 0)"/>
     <use xlink:href="#DejaVuSans-3" transform="translate(2880.984375 0)"/>
     <use xlink:href="#DejaVuSans-51" transform="translate(2912.765625 0)"/>
     <use xlink:href="#DejaVuSans-48" transform="translate(2976.140625 0)"/>
     <use xlink:href="#DejaVuSans-59" transform="translate(3037.671875 0)"/>
     <use xlink:href="#DejaVuSans-48" transform="translate(3096.859375 0)"/>
     <use xlink:href="#DejaVuSans-55" transform="translate(3158.390625 0)"/>
     <use xlink:href="#DejaVuSans-3" transform="translate(3199.5 0)"/>
     <use xlink:href="#DejaVuSans-52" transform="translate(3231.28125 0)"/>
     <use xlink:href="#DejaVuSans-45" transform="translate(3292.46875 0)"/>
     <use xlink:href="#DejaVuSans-56" transform="translate(3355.953125 0)"/>
     <use xlink:href="#DejaVuSans-48" transform="translate(3408.046875 0)"/>
     <use xlink:href="#DejaVuSans-55" transform="translate(3469.578125 0)"/>
     <use xlink:href="#DejaVuSans-59" transform="translate(3510.6875 0)"/>
     <use xlink:href="#DejaVuSans-48" transform="translate(3569.875 0)"/>
     <use xlink:href="#DejaVuSans-56" transform="translate(3631.40625 0)"/>
     <use xlink:href="#DejaVuSans-3" transform="translate(3683.5 0)"/>
     <use xlink:href="#DejaVuSans-5a" transform="translate(3715.28125 0)"/>
     <use xlink:href="#DejaVuSans-4b" transform="translate(3797.0625 0)"/>
     <use xlink:href="#DejaVuSans-4c" transform="translate(3860.4375 0)"/>
     <use xlink:href="#DejaVuSans-46" transform="translate(3888.21875 0)"/>
     <use xlink:href="#DejaVuSans-4b" transform="translate(3943.203125 0)"/>
     <use xlink:href="#DejaVuSans-3" transform="translate(4006.578125 0)"/>
     <use xlink:href="#DejaVuSans-52" transform="translate(4038.359375 0)"/>
     <use xlink:href="#DejaVuSans-51" transform="translate(4099.546875 0)"/>
     <use xlink:href="#DejaVuSans-48" transform="translate(4162.921875 0)"/>
     <use xlink:href="#DejaVuSans-3" transform="translate(4224.453125 0)"/>
     <use xlink:href="#DejaVuSans-4c" transform="translate(4256.234375 0)"/>
     <use xlink:href="#DejaVuSans-57" transform="translate(4284.015625 0)"/>
     <use xlink:href="#DejaVuSans-3" transform="translate(4323.21875 0)"/>
     <use xlink:href="#DejaVuSans-46" transform="translate(4355 0)"/>
     <use xlink:href="#DejaVuSans-52" transform="translate(4409.984375 0)"/>
     <use xlink:href="#DejaVuSans-55" transform="translate(4471.171875 0)"/>
     <use xlink:href="#DejaVuSans-55" transform="translate(4510.53125 0)"/>
     <use xlink:href="#DejaVuSans-48" transform="translate(4549.4375 0)"/>
     <use xlink:href="#DejaVuSans-46" transform="translate(4610.96875 0)"/>
     <use xlink:href="#DejaVuSans-57" transform="translate(4665.953125 0)"/>
     <use xlink:href="#DejaVuSans-56" transform="translate(4705.15625 0)"/>
     <use xlink:href="#DejaVuSans-11" transform="translate(4757.25 0)"/>
    </g>
    <!-- Stage 3 is the shipped configuration and the only one reported as a headline. -->
    <g style="fill: #52514e" transform="translate(14.5656 140.898075) scale(0.064 -0.064)">
     <defs>
      <path id="DejaVuSans-36" d="M 3425 4513 
L 3425 3897 
Q 3066 4069 2747 4153 
Q 2428 4238 2131 4238 
Q 1616 4238 1336 4038 
Q 1056 3838 1056 3469 
Q 1056 3159 1242 3001 
Q 1428 2844 1947 2747 
L 2328 2669 
Q 3034 2534 3370 2195 
Q 3706 1856 3706 1288 
Q 3706 609 3251 259 
Q 2797 -91 1919 -91 
Q 1588 -91 1214 -16 
Q 841 59 441 206 
L 441 856 
Q 825 641 1194 531 
Q 1563 422 1919 422 
Q 2459 422 2753 634 
Q 3047 847 3047 1241 
Q 3047 1584 2836 1778 
Q 2625 1972 2144 2069 
L 1759 2144 
Q 1053 2284 737 2584 
Q 422 2884 422 3419 
Q 422 4038 858 4394 
Q 1294 4750 2059 4750 
Q 2388 4750 2728 4690 
Q 3069 4631 3425 4513 
z
" transform="scale(0.015625)"/>
      <path id="DejaVuSans-4a" d="M 2906 1791 
Q 2906 2416 2648 2759 
Q 2391 3103 1925 3103 
Q 1463 3103 1205 2759 
Q 947 2416 947 1791 
Q 947 1169 1205 825 
Q 1463 481 1925 481 
Q 2391 481 2648 825 
Q 2906 1169 2906 1791 
z
M 3481 434 
Q 3481 -459 3084 -895 
Q 2688 -1331 1869 -1331 
Q 1566 -1331 1297 -1286 
Q 1028 -1241 775 -1147 
L 775 -588 
Q 1028 -725 1275 -790 
Q 1522 -856 1778 -856 
Q 2344 -856 2625 -561 
Q 2906 -266 2906 331 
L 2906 616 
Q 2728 306 2450 153 
Q 2172 0 1784 0 
Q 1141 0 747 490 
Q 353 981 353 1791 
Q 353 2603 747 3093 
Q 1141 3584 1784 3584 
Q 2172 3584 2450 3431 
Q 2728 3278 2906 2969 
L 2906 3500 
L 3481 3500 
L 3481 434 
z
" transform="scale(0.015625)"/>
      <path id="DejaVuSans-16" d="M 2597 2516 
Q 3050 2419 3304 2112 
Q 3559 1806 3559 1356 
Q 3559 666 3084 287 
Q 2609 -91 1734 -91 
Q 1441 -91 1130 -33 
Q 819 25 488 141 
L 488 750 
Q 750 597 1062 519 
Q 1375 441 1716 441 
Q 2309 441 2620 675 
Q 2931 909 2931 1356 
Q 2931 1769 2642 2001 
Q 2353 2234 1838 2234 
L 1294 2234 
L 1294 2753 
L 1863 2753 
Q 2328 2753 2575 2939 
Q 2822 3125 2822 3475 
Q 2822 3834 2567 4026 
Q 2313 4219 1838 4219 
Q 1578 4219 1281 4162 
Q 984 4106 628 3988 
L 628 4550 
Q 988 4650 1302 4700 
Q 1616 4750 1894 4750 
Q 2613 4750 3031 4423 
Q 3450 4097 3450 3541 
Q 3450 3153 3228 2886 
Q 3006 2619 2597 2516 
z
" transform="scale(0.015625)"/>
     </defs>
     <use xlink:href="#DejaVuSans-36"/>
     <use xlink:href="#DejaVuSans-57" transform="translate(63.484375 0)"/>
     <use xlink:href="#DejaVuSans-44" transform="translate(102.6875 0)"/>
     <use xlink:href="#DejaVuSans-4a" transform="translate(163.96875 0)"/>
     <use xlink:href="#DejaVuSans-48" transform="translate(227.453125 0)"/>
     <use xlink:href="#DejaVuSans-3" transform="translate(288.984375 0)"/>
     <use xlink:href="#DejaVuSans-16" transform="translate(320.765625 0)"/>
     <use xlink:href="#DejaVuSans-3" transform="translate(384.390625 0)"/>
     <use xlink:href="#DejaVuSans-4c" transform="translate(416.171875 0)"/>
     <use xlink:href="#DejaVuSans-56" transform="translate(443.953125 0)"/>
     <use xlink:href="#DejaVuSans-3" transform="translate(496.046875 0)"/>
     <use xlink:href="#DejaVuSans-57" transform="translate(527.828125 0)"/>
     <use xlink:href="#DejaVuSans-4b" transform="translate(567.03125 0)"/>
     <use xlink:href="#DejaVuSans-48" transform="translate(630.40625 0)"/>
     <use xlink:href="#DejaVuSans-3" transform="translate(691.9375 0)"/>
     <use xlink:href="#DejaVuSans-56" transform="translate(723.71875 0)"/>
     <use xlink:href="#DejaVuSans-4b" transform="translate(775.8125 0)"/>
     <use xlink:href="#DejaVuSans-4c" transform="translate(839.1875 0)"/>
     <use xlink:href="#DejaVuSans-53" transform="translate(866.96875 0)"/>
     <use xlink:href="#DejaVuSans-53" transform="translate(930.453125 0)"/>
     <use xlink:href="#DejaVuSans-48" transform="translate(993.9375 0)"/>
     <use xlink:href="#DejaVuSans-47" transform="translate(1055.46875 0)"/>
     <use xlink:href="#DejaVuSans-3" transform="translate(1118.953125 0)"/>
     <use xlink:href="#DejaVuSans-46" transform="translate(1150.734375 0)"/>
     <use xlink:href="#DejaVuSans-52" transform="translate(1205.71875 0)"/>
     <use xlink:href="#DejaVuSans-51" transform="translate(1266.90625 0)"/>
     <use xlink:href="#DejaVuSans-13af" transform="translate(1330.28125 0)"/>
     <use xlink:href="#DejaVuSans-4a" transform="translate(1393.265625 0)"/>
     <use xlink:href="#DejaVuSans-58" transform="translate(1456.75 0)"/>
     <use xlink:href="#DejaVuSans-55" transform="translate(1520.125 0)"/>
     <use xlink:href="#DejaVuSans-44" transform="translate(1561.234375 0)"/>
     <use xlink:href="#DejaVuSans-57" transform="translate(1622.515625 0)"/>
     <use xlink:href="#DejaVuSans-4c" transform="translate(1661.71875 0)"/>
     <use xlink:href="#DejaVuSans-52" transform="translate(1689.5 0)"/>
     <use xlink:href="#DejaVuSans-51" transform="translate(1750.6875 0)"/>
     <use xlink:href="#DejaVuSans-3" transform="translate(1814.0625 0)"/>
     <use xlink:href="#DejaVuSans-44" transform="translate(1845.84375 0)"/>
     <use xlink:href="#DejaVuSans-51" transform="translate(1907.125 0)"/>
     <use xlink:href="#DejaVuSans-47" transform="translate(1970.5 0)"/>
     <use xlink:href="#DejaVuSans-3" transform="translate(2033.984375 0)"/>
     <use xlink:href="#DejaVuSans-57" transform="translate(2065.765625 0)"/>
     <use xlink:href="#DejaVuSans-4b" transform="translate(2104.96875 0)"/>
     <use xlink:href="#DejaVuSans-48" transform="translate(2168.34375 0)"/>
     <use xlink:href="#DejaVuSans-3" transform="translate(2229.875 0)"/>
     <use xlink:href="#DejaVuSans-52" transform="translate(2261.65625 0)"/>
     <use xlink:href="#DejaVuSans-51" transform="translate(2322.84375 0)"/>
     <use xlink:href="#DejaVuSans-4f" transform="translate(2386.21875 0)"/>
     <use xlink:href="#DejaVuSans-5c" transform="translate(2414 0)"/>
     <use xlink:href="#DejaVuSans-3" transform="translate(2473.1875 0)"/>
     <use xlink:href="#DejaVuSans-52" transform="translate(2504.96875 0)"/>
     <use xlink:href="#DejaVuSans-51" transform="translate(2566.15625 0)"/>
     <use xlink:href="#DejaVuSans-48" transform="translate(2629.53125 0)"/>
     <use xlink:href="#DejaVuSans-3" transform="translate(2691.0625 0)"/>
     <use xlink:href="#DejaVuSans-55" transform="translate(2722.84375 0)"/>
     <use xlink:href="#DejaVuSans-48" transform="translate(2761.75 0)"/>
     <use xlink:href="#DejaVuSans-53" transform="translate(2823.28125 0)"/>
     <use xlink:href="#DejaVuSans-52" transform="translate(2886.765625 0)"/>
     <use xlink:href="#DejaVuSans-55" transform="translate(2947.953125 0)"/>
     <use xlink:href="#DejaVuSans-57" transform="translate(2989.0625 0)"/>
     <use xlink:href="#DejaVuSans-48" transform="translate(3028.265625 0)"/>
     <use xlink:href="#DejaVuSans-47" transform="translate(3089.796875 0)"/>
     <use xlink:href="#DejaVuSans-3" transform="translate(3153.28125 0)"/>
     <use xlink:href="#DejaVuSans-44" transform="translate(3185.0625 0)"/>
     <use xlink:href="#DejaVuSans-56" transform="translate(3246.34375 0)"/>
     <use xlink:href="#DejaVuSans-3" transform="translate(3298.4375 0)"/>
     <use xlink:href="#DejaVuSans-44" transform="translate(3330.21875 0)"/>
     <use xlink:href="#DejaVuSans-3" transform="translate(3391.5 0)"/>
     <use xlink:href="#DejaVuSans-4b" transform="translate(3423.28125 0)"/>
     <use xlink:href="#DejaVuSans-48" transform="translate(3486.65625 0)"/>
     <use xlink:href="#DejaVuSans-44" transform="translate(3548.1875 0)"/>
     <use xlink:href="#DejaVuSans-47" transform="translate(3609.46875 0)"/>
     <use xlink:href="#DejaVuSans-4f" transform="translate(3672.953125 0)"/>
     <use xlink:href="#DejaVuSans-4c" transform="translate(3700.734375 0)"/>
     <use xlink:href="#DejaVuSans-51" transform="translate(3728.515625 0)"/>
     <use xlink:href="#DejaVuSans-48" transform="translate(3791.890625 0)"/>
     <use xlink:href="#DejaVuSans-11" transform="translate(3853.421875 0)"/>
    </g>
   </g>
   <g id="text_8">
    <!-- checkpoint $\pi_B$ -->
    <g style="fill: #0b0b0b" transform="translate(33.6535 108.36073) scale(0.07 -0.07)">
     <defs>
      <path id="DejaVuSans-4e" d="M 581 4863 
L 1159 4863 
L 1159 1991 
L 2875 3500 
L 3609 3500 
L 1753 1863 
L 3688 0 
L 2938 0 
L 1159 1709 
L 1159 0 
L 581 0 
L 581 4863 
z
" transform="scale(0.015625)"/>
      <path id="DejaVuSans-Oblique-354" d="M 584 3500 
L 3938 3500 
L 3825 2925 
L 3384 2925 
L 2966 775 
Q 2922 550 2981 450 
Q 3038 353 3209 353 
Q 3256 353 3325 363 
Q 3397 369 3419 372 
L 3338 -44 
Q 3222 -84 3103 -103 
Q 2981 -122 2866 -122 
Q 2491 -122 2388 81 
Q 2284 288 2391 838 
L 2797 2925 
L 1506 2925 
L 938 0 
L 350 0 
L 919 2925 
L 472 2925 
L 584 3500 
z
" transform="scale(0.015625)"/>
      <path id="DejaVuSans-Oblique-25" d="M 1081 4666 
L 2694 4666 
Q 3350 4666 3675 4422 
Q 4000 4178 4000 3688 
Q 4000 3238 3720 2911 
Q 3441 2584 2988 2516 
Q 3375 2428 3569 2181 
Q 3763 1934 3763 1522 
Q 3763 819 3242 409 
Q 2722 0 1819 0 
L 172 0 
L 1081 4666 
z
M 1234 2228 
L 903 519 
L 1919 519 
Q 2491 519 2800 781 
Q 3109 1044 3109 1522 
Q 3109 1891 2904 2059 
Q 2700 2228 2247 2228 
L 1234 2228 
z
M 1606 4147 
L 1331 2741 
L 2272 2741 
Q 2775 2741 3058 2959 
Q 3341 3178 3341 3566 
Q 3341 3869 3150 4008 
Q 2959 4147 2541 4147 
L 1606 4147 
z
" transform="scale(0.015625)"/>
     </defs>
     <use xlink:href="#DejaVuSans-46" transform="translate(0 0.015625)"/>
     <use xlink:href="#DejaVuSans-4b" transform="translate(54.980469 0.015625)"/>
     <use xlink:href="#DejaVuSans-48" transform="translate(118.359375 0.015625)"/>
     <use xlink:href="#DejaVuSans-46" transform="translate(179.882812 0.015625)"/>
     <use xlink:href="#DejaVuSans-4e" transform="translate(234.863281 0.015625)"/>
     <use xlink:href="#DejaVuSans-53" transform="translate(292.773438 0.015625)"/>
     <use xlink:href="#DejaVuSans-52" transform="translate(356.25 0.015625)"/>
     <use xlink:href="#DejaVuSans-4c" transform="translate(417.431641 0.015625)"/>
     <use xlink:href="#DejaVuSans-51" transform="translate(445.214844 0.015625)"/>
     <use xlink:href="#DejaVuSans-57" transform="translate(508.59375 0.015625)"/>
     <use xlink:href="#DejaVuSans-3" transform="translate(547.802734 0.015625)"/>
     <use xlink:href="#DejaVuSans-Oblique-354" transform="translate(579.589844 0.015625)"/>
     <use xlink:href="#DejaVuSans-Oblique-25" transform="translate(639.794922 -14.984326) scale(0.7)"/>
    </g>
   </g>
   <g id="text_9">
    <!-- bias adapter -->
    <g style="fill: #0b0b0b" transform="translate(35.865609 94.159227) scale(0.07 -0.07)">
     <use xlink:href="#DejaVuSans-45"/>
     <use xlink:href="#DejaVuSans-4c" transform="translate(63.484375 0)"/>
     <use xlink:href="#DejaVuSans-44" transform="translate(91.265625 0)"/>
     <use xlink:href="#DejaVuSans-56" transform="translate(152.546875 0)"/>
     <use xlink:href="#DejaVuSans-3" transform="translate(204.640625 0)"/>
     <use xlink:href="#DejaVuSans-44" transform="translate(236.421875 0)"/>
     <use xlink:href="#DejaVuSans-47" transform="translate(297.703125 0)"/>
     <use xlink:href="#DejaVuSans-44" transform="translate(361.1875 0)"/>
     <use xlink:href="#DejaVuSans-53" transform="translate(422.46875 0)"/>
     <use xlink:href="#DejaVuSans-57" transform="translate(485.953125 0)"/>
     <use xlink:href="#DejaVuSans-48" transform="translate(525.15625 0)"/>
     <use xlink:href="#DejaVuSans-55" transform="translate(586.6875 0)"/>
    </g>
   </g>
   <g id="text_10">
    <!-- frozen -->
    <g style="fill: #52514e" transform="translate(48.076891 100.986719) scale(0.062 -0.062)">
     <defs>
      <path id="DejaVuSans-Oblique-49" d="M 3059 4863 
L 2969 4384 
L 2419 4384 
Q 2106 4384 1964 4261 
Q 1822 4138 1753 3809 
L 1691 3500 
L 2638 3500 
L 2553 3053 
L 1606 3053 
L 1013 0 
L 434 0 
L 1031 3053 
L 481 3053 
L 563 3500 
L 1113 3500 
L 1159 3744 
Q 1278 4363 1576 4613 
Q 1875 4863 2516 4863 
L 3059 4863 
z
" transform="scale(0.015625)"/>
      <path id="DejaVuSans-Oblique-55" d="M 2853 2969 
Q 2766 3016 2653 3041 
Q 2541 3066 2413 3066 
Q 1953 3066 1609 2717 
Q 1266 2369 1153 1784 
L 800 0 
L 225 0 
L 909 3500 
L 1484 3500 
L 1375 2956 
Q 1603 3259 1920 3421 
Q 2238 3584 2597 3584 
Q 2691 3584 2781 3573 
Q 2872 3563 2963 3538 
L 2853 2969 
z
" transform="scale(0.015625)"/>
      <path id="DejaVuSans-Oblique-52" d="M 1625 -91 
Q 1009 -91 651 289 
Q 294 669 294 1325 
Q 294 1706 417 2101 
Q 541 2497 738 2766 
Q 1047 3184 1428 3384 
Q 1809 3584 2291 3584 
Q 2888 3584 3255 3212 
Q 3622 2841 3622 2241 
Q 3622 1825 3500 1412 
Q 3378 1000 3181 728 
Q 2875 309 2494 109 
Q 2113 -91 1625 -91 
z
M 891 1344 
Q 891 869 1089 633 
Q 1288 397 1691 397 
Q 2269 397 2648 901 
Q 3028 1406 3028 2181 
Q 3028 2634 2825 2865 
Q 2622 3097 2228 3097 
Q 1903 3097 1650 2945 
Q 1397 2794 1197 2484 
Q 1050 2253 970 1956 
Q 891 1659 891 1344 
z
" transform="scale(0.015625)"/>
      <path id="DejaVuSans-Oblique-5d" d="M 744 3500 
L 3475 3500 
L 3372 2975 
L 738 459 
L 2913 459 
L 2822 0 
L -19 0 
L 84 525 
L 2719 3041 
L 653 3041 
L 744 3500 
z
" transform="scale(0.015625)"/>
      <path id="DejaVuSans-Oblique-48" d="M 3078 2063 
Q 3088 2113 3092 2166 
Q 3097 2219 3097 2272 
Q 3097 2653 2873 2875 
Q 2650 3097 2266 3097 
Q 1838 3097 1509 2826 
Q 1181 2556 1013 2059 
L 3078 2063 
z
M 3578 1613 
L 903 1613 
Q 884 1494 878 1425 
Q 872 1356 872 1306 
Q 872 872 1139 634 
Q 1406 397 1894 397 
Q 2269 397 2603 481 
Q 2938 566 3225 728 
L 3116 159 
Q 2806 34 2476 -28 
Q 2147 -91 1806 -91 
Q 1078 -91 686 257 
Q 294 606 294 1247 
Q 294 1794 489 2264 
Q 684 2734 1063 3103 
Q 1306 3334 1642 3459 
Q 1978 3584 2356 3584 
Q 2950 3584 3301 3228 
Q 3653 2872 3653 2272 
Q 3653 2128 3634 1964 
Q 3616 1800 3578 1613 
z
" transform="scale(0.015625)"/>
      <path id="DejaVuSans-Oblique-51" d="M 3566 2113 
L 3156 0 
L 2578 0 
L 2988 2091 
Q 3016 2238 3031 2350 
Q 3047 2463 3047 2528 
Q 3047 2791 2881 2937 
Q 2716 3084 2419 3084 
Q 1956 3084 1622 2776 
Q 1288 2469 1184 1941 
L 800 0 
L 225 0 
L 903 3500 
L 1478 3500 
L 1363 2950 
Q 1603 3253 1940 3418 
Q 2278 3584 2650 3584 
Q 3113 3584 3367 3334 
Q 3622 3084 3622 2631 
Q 3622 2519 3608 2391 
Q 3594 2263 3566 2113 
z
" transform="scale(0.015625)"/>
     </defs>
     <use xlink:href="#DejaVuSans-Oblique-49"/>
     <use xlink:href="#DejaVuSans-Oblique-55" transform="translate(35.203125 0)"/>
     <use xlink:href="#DejaVuSans-Oblique-52" transform="translate(76.3125 0)"/>
     <use xlink:href="#DejaVuSans-Oblique-5d" transform="translate(137.5 0)"/>
     <use xlink:href="#DejaVuSans-Oblique-48" transform="translate(189.984375 0)"/>
     <use xlink:href="#DejaVuSans-Oblique-51" transform="translate(251.515625 0)"/>
    </g>
   </g>
   <g id="text_11">
    <!-- checkpoint $\pi_B$ -->
    <g style="fill: #0b0b0b" transform="translate(155.1859 108.36073) scale(0.07 -0.07)">
     <use xlink:href="#DejaVuSans-46" transform="translate(0 0.015625)"/>
     <use xlink:href="#DejaVuSans-4b" transform="translate(54.980469 0.015625)"/>
     <use xlink:href="#DejaVuSans-48" transform="translate(118.359375 0.015625)"/>
     <use xlink:href="#DejaVuSans-46" transform="translate(179.882812 0.015625)"/>
     <use xlink:href="#DejaVuSans-4e" transform="translate(234.863281 0.015625)"/>
     <use xlink:href="#DejaVuSans-53" transform="translate(292.773438 0.015625)"/>
     <use xlink:href="#DejaVuSans-52" transform="translate(356.25 0.015625)"/>
     <use xlink:href="#DejaVuSans-4c" transform="translate(417.431641 0.015625)"/>
     <use xlink:href="#DejaVuSans-51" transform="translate(445.214844 0.015625)"/>
     <use xlink:href="#DejaVuSans-57" transform="translate(508.59375 0.015625)"/>
     <use xlink:href="#DejaVuSans-3" transform="translate(547.802734 0.015625)"/>
     <use xlink:href="#DejaVuSans-Oblique-354" transform="translate(579.589844 0.015625)"/>
     <use xlink:href="#DejaVuSans-Oblique-25" transform="translate(639.794922 -14.984326) scale(0.7)"/>
    </g>
   </g>
   <g id="text_12">
    <!-- bias adapter -->
    <g style="fill: #0b0b0b" transform="translate(157.398009 94.159227) scale(0.07 -0.07)">
     <use xlink:href="#DejaVuSans-45"/>
     <use xlink:href="#DejaVuSans-4c" transform="translate(63.484375 0)"/>
     <use xlink:href="#DejaVuSans-44" transform="translate(91.265625 0)"/>
     <use xlink:href="#DejaVuSans-56" transform="translate(152.546875 0)"/>
     <use xlink:href="#DejaVuSans-3" transform="translate(204.640625 0)"/>
     <use xlink:href="#DejaVuSans-44" transform="translate(236.421875 0)"/>
     <use xlink:href="#DejaVuSans-47" transform="translate(297.703125 0)"/>
     <use xlink:href="#DejaVuSans-44" transform="translate(361.1875 0)"/>
     <use xlink:href="#DejaVuSans-53" transform="translate(422.46875 0)"/>
     <use xlink:href="#DejaVuSans-57" transform="translate(485.953125 0)"/>
     <use xlink:href="#DejaVuSans-48" transform="translate(525.15625 0)"/>
     <use xlink:href="#DejaVuSans-55" transform="translate(586.6875 0)"/>
    </g>
   </g>
   <g id="text_13">
    <!-- frozen -->
    <g style="fill: #52514e" transform="translate(169.609291 100.986719) scale(0.062 -0.062)">
     <use xlink:href="#DejaVuSans-Oblique-49"/>
     <use xlink:href="#DejaVuSans-Oblique-55" transform="translate(35.203125 0)"/>
     <use xlink:href="#DejaVuSans-Oblique-52" transform="translate(76.3125 0)"/>
     <use xlink:href="#DejaVuSans-Oblique-5d" transform="translate(137.5 0)"/>
     <use xlink:href="#DejaVuSans-Oblique-48" transform="translate(189.984375 0)"/>
     <use xlink:href="#DejaVuSans-Oblique-51" transform="translate(251.515625 0)"/>
    </g>
   </g>
   <g id="text_14">
    <!-- correction -->
    <g style="fill: #0b0b0b" transform="translate(161.7834 82.824519) scale(0.07 -0.07)">
     <use xlink:href="#DejaVuSans-46"/>
     <use xlink:href="#DejaVuSans-52" transform="translate(54.984375 0)"/>
     <use xlink:href="#DejaVuSans-55" transform="translate(116.171875 0)"/>
     <use xlink:href="#DejaVuSans-55" transform="translate(155.53125 0)"/>
     <use xlink:href="#DejaVuSans-48" transform="translate(194.4375 0)"/>
     <use xlink:href="#DejaVuSans-46" transform="translate(255.96875 0)"/>
     <use xlink:href="#DejaVuSans-57" transform="translate(310.953125 0)"/>
     <use xlink:href="#DejaVuSans-4c" transform="translate(350.15625 0)"/>
     <use xlink:href="#DejaVuSans-52" transform="translate(377.9375 0)"/>
     <use xlink:href="#DejaVuSans-51" transform="translate(439.125 0)"/>
    </g>
   </g>
   <g id="text_15">
    <!-- trained -->
    <g style="fill: #52514e" transform="translate(168.280166 89.652011) scale(0.062 -0.062)">
     <defs>
      <path id="DejaVuSans-Oblique-57" d="M 2706 3500 
L 2619 3053 
L 1472 3053 
L 1100 1153 
Q 1081 1047 1072 975 
Q 1063 903 1063 863 
Q 1063 663 1183 572 
Q 1303 481 1569 481 
L 2150 481 
L 2053 0 
L 1503 0 
Q 991 0 739 200 
Q 488 400 488 806 
Q 488 878 497 964 
Q 506 1050 525 1153 
L 897 3053 
L 409 3053 
L 500 3500 
L 978 3500 
L 1172 4494 
L 1747 4494 
L 1556 3500 
L 2706 3500 
z
" transform="scale(0.015625)"/>
      <path id="DejaVuSans-Oblique-44" d="M 3438 1997 
L 3047 0 
L 2472 0 
L 2578 531 
Q 2325 219 2001 64 
Q 1678 -91 1281 -91 
Q 834 -91 548 182 
Q 263 456 263 884 
Q 263 1497 752 1853 
Q 1241 2209 2100 2209 
L 2900 2209 
L 2931 2363 
Q 2938 2388 2941 2417 
Q 2944 2447 2944 2509 
Q 2944 2788 2717 2942 
Q 2491 3097 2081 3097 
Q 1800 3097 1504 3025 
Q 1209 2953 897 2809 
L 997 3341 
Q 1322 3463 1633 3523 
Q 1944 3584 2234 3584 
Q 2853 3584 3176 3315 
Q 3500 3047 3500 2534 
Q 3500 2431 3484 2292 
Q 3469 2153 3438 1997 
z
M 2816 1759 
L 2241 1759 
Q 1534 1759 1195 1570 
Q 856 1381 856 984 
Q 856 709 1029 553 
Q 1203 397 1509 397 
Q 1978 397 2328 733 
Q 2678 1069 2791 1631 
L 2816 1759 
z
" transform="scale(0.015625)"/>
      <path id="DejaVuSans-Oblique-4c" d="M 1172 4863 
L 1747 4863 
L 1606 4134 
L 1031 4134 
L 1172 4863 
z
M 909 3500 
L 1484 3500 
L 800 0 
L 225 0 
L 909 3500 
z
" transform="scale(0.015625)"/>
      <path id="DejaVuSans-Oblique-47" d="M 2675 525 
Q 2444 222 2128 65 
Q 1813 -91 1428 -91 
Q 903 -91 598 267 
Q 294 625 294 1247 
Q 294 1766 478 2236 
Q 663 2706 1013 3078 
Q 1244 3325 1534 3454 
Q 1825 3584 2144 3584 
Q 2481 3584 2739 3421 
Q 2997 3259 3138 2956 
L 3513 4863 
L 4091 4863 
L 3144 0 
L 2566 0 
L 2675 525 
z
M 891 1350 
Q 891 897 1095 644 
Q 1300 391 1663 391 
Q 1931 391 2161 520 
Q 2391 650 2566 903 
Q 2750 1166 2856 1509 
Q 2963 1853 2963 2188 
Q 2963 2622 2758 2865 
Q 2553 3109 2194 3109 
Q 1922 3109 1687 2981 
Q 1453 2853 1288 2613 
Q 1106 2353 998 2009 
Q 891 1666 891 1350 
z
" transform="scale(0.015625)"/>
     </defs>
     <use xlink:href="#DejaVuSans-Oblique-57"/>
     <use xlink:href="#DejaVuSans-Oblique-55" transform="translate(39.203125 0)"/>
     <use xlink:href="#DejaVuSans-Oblique-44" transform="translate(80.3125 0)"/>
     <use xlink:href="#DejaVuSans-Oblique-4c" transform="translate(141.59375 0)"/>
     <use xlink:href="#DejaVuSans-Oblique-51" transform="translate(169.375 0)"/>
     <use xlink:href="#DejaVuSans-Oblique-48" transform="translate(232.75 0)"/>
     <use xlink:href="#DejaVuSans-Oblique-47" transform="translate(294.28125 0)"/>
    </g>
   </g>
   <g id="text_16">
    <!-- checkpoint $\pi_B$ -->
    <g style="fill: #0b0b0b" transform="translate(276.7183 108.36073) scale(0.07 -0.07)">
     <use xlink:href="#DejaVuSans-46" transform="translate(0 0.015625)"/>
     <use xlink:href="#DejaVuSans-4b" transform="translate(54.980469 0.015625)"/>
     <use xlink:href="#DejaVuSans-48" transform="translate(118.359375 0.015625)"/>
     <use xlink:href="#DejaVuSans-46" transform="translate(179.882812 0.015625)"/>
     <use xlink:href="#DejaVuSans-4e" transform="translate(234.863281 0.015625)"/>
     <use xlink:href="#DejaVuSans-53" transform="translate(292.773438 0.015625)"/>
     <use xlink:href="#DejaVuSans-52" transform="translate(356.25 0.015625)"/>
     <use xlink:href="#DejaVuSans-4c" transform="translate(417.431641 0.015625)"/>
     <use xlink:href="#DejaVuSans-51" transform="translate(445.214844 0.015625)"/>
     <use xlink:href="#DejaVuSans-57" transform="translate(508.59375 0.015625)"/>
     <use xlink:href="#DejaVuSans-3" transform="translate(547.802734 0.015625)"/>
     <use xlink:href="#DejaVuSans-Oblique-354" transform="translate(579.589844 0.015625)"/>
     <use xlink:href="#DejaVuSans-Oblique-25" transform="translate(639.794922 -14.984326) scale(0.7)"/>
    </g>
   </g>
   <g id="text_17">
    <!-- bias adapter -->
    <g style="fill: #0b0b0b" transform="translate(278.930409 94.159227) scale(0.07 -0.07)">
     <use xlink:href="#DejaVuSans-45"/>
     <use xlink:href="#DejaVuSans-4c" transform="translate(63.484375 0)"/>
     <use xlink:href="#DejaVuSans-44" transform="translate(91.265625 0)"/>
     <use xlink:href="#DejaVuSans-56" transform="translate(152.546875 0)"/>
     <use xlink:href="#DejaVuSans-3" transform="translate(204.640625 0)"/>
     <use xlink:href="#DejaVuSans-44" transform="translate(236.421875 0)"/>
     <use xlink:href="#DejaVuSans-47" transform="translate(297.703125 0)"/>
     <use xlink:href="#DejaVuSans-44" transform="translate(361.1875 0)"/>
     <use xlink:href="#DejaVuSans-53" transform="translate(422.46875 0)"/>
     <use xlink:href="#DejaVuSans-57" transform="translate(485.953125 0)"/>
     <use xlink:href="#DejaVuSans-48" transform="translate(525.15625 0)"/>
     <use xlink:href="#DejaVuSans-55" transform="translate(586.6875 0)"/>
    </g>
   </g>
   <g id="text_18">
    <!-- detached -->
    <g style="fill: #52514e" transform="translate(286.368175 100.986719) scale(0.062 -0.062)">
     <defs>
      <path id="DejaVuSans-Oblique-46" d="M 3431 3366 
L 3316 2797 
Q 3109 2947 2876 3022 
Q 2644 3097 2394 3097 
Q 2119 3097 1870 3000 
Q 1622 2903 1453 2725 
Q 1184 2453 1037 2087 
Q 891 1722 891 1331 
Q 891 859 1127 628 
Q 1363 397 1844 397 
Q 2081 397 2348 469 
Q 2616 541 2906 684 
L 2797 116 
Q 2547 13 2283 -39 
Q 2019 -91 1741 -91 
Q 1044 -91 669 257 
Q 294 606 294 1253 
Q 294 1797 489 2255 
Q 684 2713 1069 3078 
Q 1331 3328 1684 3456 
Q 2038 3584 2456 3584 
Q 2700 3584 2940 3529 
Q 3181 3475 3431 3366 
z
" transform="scale(0.015625)"/>
      <path id="DejaVuSans-Oblique-4b" d="M 3566 2113 
L 3156 0 
L 2578 0 
L 2988 2091 
Q 3016 2238 3031 2350 
Q 3047 2463 3047 2528 
Q 3047 2791 2881 2937 
Q 2716 3084 2419 3084 
Q 1956 3084 1617 2771 
Q 1278 2459 1178 1941 
L 800 0 
L 225 0 
L 1172 4863 
L 1747 4863 
L 1375 2950 
Q 1594 3244 1934 3414 
Q 2275 3584 2650 3584 
Q 3113 3584 3367 3334 
Q 3622 3084 3622 2631 
Q 3622 2519 3608 2391 
Q 3594 2263 3566 2113 
z
" transform="scale(0.015625)"/>
     </defs>
     <use xlink:href="#DejaVuSans-Oblique-47"/>
     <use xlink:href="#DejaVuSans-Oblique-48" transform="translate(63.484375 0)"/>
     <use xlink:href="#DejaVuSans-Oblique-57" transform="translate(125.015625 0)"/>
     <use xlink:href="#DejaVuSans-Oblique-44" transform="translate(164.21875 0)"/>
     <use xlink:href="#DejaVuSans-Oblique-46" transform="translate(225.5 0)"/>
     <use xlink:href="#DejaVuSans-Oblique-4b" transform="translate(280.484375 0)"/>
     <use xlink:href="#DejaVuSans-Oblique-48" transform="translate(343.859375 0)"/>
     <use xlink:href="#DejaVuSans-Oblique-47" transform="translate(405.390625 0)"/>
    </g>
   </g>
   <g id="text_19">
    <!-- correction -->
    <g style="fill: #0b0b0b" transform="translate(283.3158 82.824519) scale(0.07 -0.07)">
     <use xlink:href="#DejaVuSans-46"/>
     <use xlink:href="#DejaVuSans-52" transform="translate(54.984375 0)"/>
     <use xlink:href="#DejaVuSans-55" transform="translate(116.171875 0)"/>
     <use xlink:href="#DejaVuSans-55" transform="translate(155.53125 0)"/>
     <use xlink:href="#DejaVuSans-48" transform="translate(194.4375 0)"/>
     <use xlink:href="#DejaVuSans-46" transform="translate(255.96875 0)"/>
     <use xlink:href="#DejaVuSans-57" transform="translate(310.953125 0)"/>
     <use xlink:href="#DejaVuSans-4c" transform="translate(350.15625 0)"/>
     <use xlink:href="#DejaVuSans-52" transform="translate(377.9375 0)"/>
     <use xlink:href="#DejaVuSans-51" transform="translate(439.125 0)"/>
    </g>
   </g>
   <g id="text_20">
    <!-- attached -->
    <g style="fill: #52514e" transform="translate(287.128644 89.652011) scale(0.062 -0.062)">
     <use xlink:href="#DejaVuSans-Oblique-44"/>
     <use xlink:href="#DejaVuSans-Oblique-57" transform="translate(61.28125 0)"/>
     <use xlink:href="#DejaVuSans-Oblique-57" transform="translate(100.484375 0)"/>
     <use xlink:href="#DejaVuSans-Oblique-44" transform="translate(139.6875 0)"/>
     <use xlink:href="#DejaVuSans-Oblique-46" transform="translate(200.96875 0)"/>
     <use xlink:href="#DejaVuSans-Oblique-4b" transform="translate(255.953125 0)"/>
     <use xlink:href="#DejaVuSans-Oblique-48" transform="translate(319.328125 0)"/>
     <use xlink:href="#DejaVuSans-Oblique-47" transform="translate(380.859375 0)"/>
    </g>
   </g>
  </g>
 </g>
 <defs>
  <clipPath id="p6e5ed00cd1">
   <rect x="7.2" y="7.2" width="368.28" height="130.284"/>
  </clipPath>
 </defs>
</svg>
